<?xml version="1.0" standalone="no"?>
<!DOCTYPE svg PUBLIC "-//W3C//DTD SVG 20010904//EN"
 "http://www.w3.org/TR/2001/REC-SVG-20010904/DTD/svg10.dtd">
<svg version="1.0" xmlns="http://www.w3.org/2000/svg"
 width="777.000000pt" height="777.000000pt" viewBox="0 0 777.000000 777.000000"
 preserveAspectRatio="xMidYMid meet">
<metadata>
Created by potrace 1.11, written by Peter Selinger 2001-2013
</metadata>
<g transform="translate(0.000000,777.000000) scale(0.100000,-0.100000)"
fill="#000000" stroke="none">
<path d="M3601 7759 c-1058 -76 -2071 -602 -2726 -1415 -512 -635 -807 -1386
-865 -2199 -88 -1243 454 -2495 1416 -3270 635 -512 1386 -807 2199 -865 566
-40 1160 52 1690 262 72 29 222 98 335 154 738 370 1324 956 1694 1694 210
419 317 756 385 1210 98 655 16 1362 -231 1985 -29 72 -98 222 -154 335 -370
738 -956 1324 -1694 1694 -419 210 -756 317 -1210 385 -261 39 -563 50 -839
30z m-839 -1495 c64 -21 121 -74 149 -136 l24 -53 0 -1945 0 -1945 -31 -55
c-34 -61 -100 -113 -165 -130 -25 -7 -212 -10 -536 -8 -489 3 -499 3 -538 25
-52 28 -98 74 -121 121 -18 36 -19 110 -22 1977 -2 1464 0 1951 9 1983 19 68
60 116 130 151 l62 31 497 0 c423 0 503 -2 542 -16z m1624 1 c66 -19 126 -72
155 -137 l24 -53 3 -992 2 -991 105 104 104 105 3 892 3 892 23 47 c30 61 93
114 156 133 73 22 979 22 1052 0 63 -19 126 -72 156 -133 l23 -47 3 -892 3
-892 98 -98 c399 -396 462 -998 154 -1461 -31 -48 -101 -131 -155 -185 l-98
-98 0 -118 c0 -74 -5 -136 -15 -167 -19 -63 -71 -125 -132 -155 l-48 -24 -515
0 -515 0 -47 24 c-26 12 -62 39 -79 59 -53 61 -62 94 -67 249 l-4 141 -65 58
c-36 31 -82 79 -103 105 l-38 49 -4 -248 -3 -247 -30 -54 c-63 -114 -136 -141
-377 -141 l-168 0 0 -165 c0 -149 2 -166 18 -171 78 -25 173 -84 233 -143 59
-60 118 -155 143 -233 5 -17 50 -18 748 -18 476 0 756 -4 780 -10 40 -12 84
-57 95 -98 9 -36 -17 -101 -50 -126 -28 -21 -37 -21 -798 -26 l-771 -5 -19
-55 c-86 -244 -360 -398 -614 -347 -44 9 -107 30 -140 46 -118 59 -226 180
-268 302 l-20 59 -774 2 -775 3 -34 37 c-28 31 -34 46 -34 81 0 56 33 108 80
124 26 9 232 12 787 12 l753 1 6 27 c14 59 81 170 135 224 57 57 152 117 222
139 l37 12 0 164 0 164 -180 0 c-155 0 -187 3 -233 20 -56 21 -113 72 -143
130 -18 34 -19 106 -22 1965 -2 1386 0 1945 8 1982 17 80 93 157 180 184 14 4
244 8 511 8 401 1 494 -2 535 -14z"/>
<path d="M1847 5746 c-51 -19 -67 -34 -89 -84 -31 -70 -4 -148 64 -183 35 -18
63 -19 405 -19 331 0 371 2 402 18 48 24 73 62 78 119 5 54 -18 98 -70 137
-27 20 -41 21 -390 23 -286 2 -370 0 -400 -11z"/>
<path d="M1812 5160 c-92 -57 -86 -201 10 -251 35 -18 63 -19 405 -19 331 0
371 2 402 18 48 24 73 62 78 119 5 57 -19 102 -69 133 -31 19 -51 20 -413 20
-364 0 -381 -1 -413 -20z"/>
<path d="M3486 5750 c-65 -20 -111 -89 -103 -157 6 -57 30 -91 80 -114 39 -17
70 -19 405 -19 391 0 391 0 441 54 19 20 26 40 28 84 5 72 -19 115 -80 142
-39 18 -67 20 -392 19 -192 0 -363 -5 -379 -9z"/>
<path d="M5105 5746 c-37 -16 -82 -67 -91 -102 -9 -36 2 -90 25 -123 43 -60
53 -61 453 -61 326 0 367 2 397 18 108 54 105 209 -4 262 -39 19 -61 20 -396
20 -272 -1 -361 -4 -384 -14z"/>
<path d="M3688 5181 c-198 -5 -219 -8 -245 -27 -88 -65 -79 -197 18 -246 31
-16 71 -18 402 -18 396 0 396 0 446 54 17 18 25 41 29 77 6 64 -16 110 -67
142 -33 20 -49 22 -201 23 -91 0 -263 -2 -382 -5z"/>
<path d="M5132 5181 c-106 -18 -157 -151 -90 -236 42 -53 56 -55 456 -55 367
0 369 0 403 23 91 61 89 181 -5 251 -26 20 -41 21 -374 23 -191 0 -366 -2
-390 -6z"/>
<path d="M5290 4261 c-299 -66 -552 -297 -654 -599 -53 -155 -59 -356 -16
-516 89 -331 367 -589 705 -653 112 -22 314 -13 410 17 166 53 303 137 413
255 369 397 309 1021 -129 1346 -74 55 -206 119 -295 144 -94 26 -329 29 -434
6z m33 -233 c47 -25 46 -9 47 -645 0 -331 -3 -609 -6 -618 -8 -19 -55 -45 -83
-45 -11 0 -33 11 -48 24 l-28 24 -5 493 -5 493 -119 -112 c-109 -103 -122
-112 -157 -112 -64 0 -105 60 -77 113 13 26 336 334 391 375 35 25 58 27 90
10z m424 -12 l28 -24 5 -494 5 -493 118 111 c65 62 129 114 142 116 61 12 116
-46 98 -104 -10 -34 -393 -395 -428 -404 -34 -9 -80 12 -94 42 -16 37 -15
1213 2 1235 34 44 84 50 124 15z"/>
<path d="M3800 1406 c-92 -20 -157 -72 -206 -166 -24 -46 -24 -169 0 -223 24
-54 94 -127 142 -148 147 -66 309 -7 381 139 68 139 5 312 -138 379 -57 27
-111 33 -179 19z"/>
</g>
</svg>
